<svg xmlns="http://www.w3.org/2000/svg" viewBox="0 0 138.71 138.71"><defs><style>.cls-1{fill:#29abe2;}.cls-2{fill:#f9f9fa;}.cls-3{fill:none;stroke:#f9f9fa;stroke-miterlimit:10;stroke-width:3px;}</style></defs><title>delete_revisited</title><g id="Layer_2" data-name="Layer 2"><g id="Layer_5" data-name="Layer 5"><circle class="cls-1" cx="69.35" cy="69.35" r="69.35"/></g><g id="Layer_1-2" data-name="Layer 1"><path class="cls-2" d="M100.5,125.1H37.91a3,3,0,0,1-3-2.62L25.62,41.67a3,3,0,0,1,2.71-3.26l.29,0h81.19a3,3,0,0,1,3,3,2.64,2.64,0,0,1,0,.29l-9.31,80.76A3,3,0,0,1,100.5,125.1Z"/><rect class="cls-2" x="19.72" y="23.59" width="99.26" height="21.14" rx="10"/><rect class="cls-3" x="52.99" y="13.6" width="32.18" height="75.9" rx="5"/><path class="cls-1" d="M47.72,114.75,40.06,47.37A3,3,0,0,1,42.27,44h0a2.67,2.67,0,0,1,2.87,2.44v.14L52.81,114a3,3,0,0,1-2.21,3.37h0a2.68,2.68,0,0,1-2.87-2.47S47.72,114.79,47.72,114.75Z"/><rect class="cls-1" x="66.43" y="45.78" width="5.13" height="73.98" rx="2.56"/><path class="cls-1" d="M91,115.1l7.66-67.38a3,3,0,0,0-2.2-3.37h0a2.67,2.67,0,0,0-2.87,2.45c0,.05,0,.09,0,.13l-7.66,67.38a3,3,0,0,0,2.2,3.37h0A2.68,2.68,0,0,0,91,115.23Z"/></g></g></svg>