<svg xmlns="http://www.w3.org/2000/svg" viewBox="0 0 138.71 138.71"><defs><style>.cls-1{fill:#29abe2;}.cls-2,.cls-3{fill:#f9f9fa;stroke:#29abe2;}.cls-2{stroke-miterlimit:10;}.cls-3{stroke-miterlimit:10;stroke-width:2px;}</style></defs><title>edit_revisited</title><g id="Layer_2" data-name="Layer 2"><g id="Layer_5" data-name="Layer 5"><circle class="cls-1" cx="69.35" cy="69.35" r="69.35"/></g><g id="Layer_1-2" data-name="Layer 1"><path class="cls-2" d="M44.14,94.55l9,9a1.21,1.21,0,0,1-.27,1.7,1.18,1.18,0,0,1-.39.19l-13.8,4.8-13.82,4.83a.91.91,0,0,1-1.22-.45.87.87,0,0,1,0-.77L28.46,100l4.8-13.82a1.21,1.21,0,0,1,1.49-.84,1.18,1.18,0,0,1,.39.19Z"/><ellipse class="cls-3" cx="99.14" cy="39.55" rx="17.35" ry="14.53" transform="translate(1.07 81.69) rotate(-45)"/><rect class="cls-3" x="31.82" y="52.66" width="79.38" height="29.07" rx="2.52" transform="translate(-26.57 70.25) rotate(-45)"/></g></g></svg>