<svg xmlns="http://www.w3.org/2000/svg" xmlns:xlink="http://www.w3.org/1999/xlink" viewBox="0 0 79.88 120.11"><defs><style>.cls-1,.cls-2,.cls-3{fill:#fff;}.cls-2,.cls-3,.cls-4{stroke-miterlimit:10;stroke-width:2px;}.cls-2{stroke:url(#linear-gradient);}.cls-3{stroke:url(#linear-gradient-2);}.cls-4{stroke:url(#linear-gradient-3);}</style><linearGradient id="linear-gradient" x1="18.95" y1="31.36" x2="61.68" y2="31.36" gradientUnits="userSpaceOnUse"><stop offset="0" stop-color="#29abe2"/><stop offset="1" stop-color="#167bbb"/></linearGradient><linearGradient id="linear-gradient-2" x1="18.95" y1="41.9" x2="61.68" y2="41.9" xlink:href="#linear-gradient"/><linearGradient id="linear-gradient-3" x1="18.95" y1="51.44" x2="61.68" y2="51.44" xlink:href="#linear-gradient"/></defs><title>education_normal</title><g id="Layer_2" data-name="Layer 2"><g id="Layer_9" data-name="Layer 9"><path class="cls-1" d="M36.61,52,6.48,28.82a3.6,3.6,0,0,1,.12-5.65L40.69.45a2.63,2.63,0,0,1,3.07.09L73.14,22.23a3.62,3.62,0,0,1,0,5.63L39.81,52A2.64,2.64,0,0,1,36.61,52Z"/><ellipse class="cls-2" cx="40.32" cy="31.36" rx="20.37" ry="8.82"/><polyline class="cls-3" points="60.69 31.66 60.69 51.14 19.95 51.14 19.95 31.99"/><ellipse class="cls-4" cx="40.32" cy="51.44" rx="20.37" ry="8.82"/><rect class="cls-1" x="68.15" y="28.83" width="1.7" height="13"/><path class="cls-1" d="M69.76,66.75H68.24a1.05,1.05,0,0,1-.89-1.2l.76-18.3A1,1,0,0,1,69,46.16h0a1,1,0,0,1,.9,1.09l.76,18.3A1.07,1.07,0,0,1,69.76,66.75Z"/><ellipse class="cls-1" cx="69" cy="45.08" rx="4.26" ry="5.42"/><path class="cls-1" d="M76.32,120.09a3.55,3.55,0,0,0,3.55-3.86,40.11,40.11,0,0,0-79.85,0,3.54,3.54,0,0,0,3.55,3.86Z"/><path class="cls-1" d="M60.64,57.8a20.42,20.42,0,0,1-40.83,0c0-11.28,9.11-14.37,20.38-14.37S60.64,46.52,60.64,57.8Z"/></g></g></svg>