<svg xmlns="http://www.w3.org/2000/svg" xmlns:xlink="http://www.w3.org/1999/xlink" viewBox="0 0 103 111.5"><defs><style>.cls-1{fill:#f9f9fa;}.cls-2,.cls-3{fill:none;stroke-miterlimit:10;}.cls-2{stroke:#f9f9fa;stroke-width:5px;}.cls-3{stroke-width:2px;stroke:url(#linear-gradient);}.cls-4{fill:url(#linear-gradient-2);}</style><linearGradient id="linear-gradient" x1="0.84" y1="55.34" x2="102.16" y2="55.34" gradientUnits="userSpaceOnUse"><stop offset="0" stop-color="#29abe2"/><stop offset="1" stop-color="#167bbb"/></linearGradient><linearGradient id="linear-gradient-2" x1="38.42" y1="74.5" x2="66" y2="74.5" xlink:href="#linear-gradient"/></defs><title>employment</title><g id="Layer_2" data-name="Layer 2"><g id="Layer_1-2" data-name="Layer 1"><path class="cls-1" d="M98,22.5A4.79,4.79,0,0,1,103,27V107a4.79,4.79,0,0,1-5,4.54H5A4.79,4.79,0,0,1,0,107V27A4.79,4.79,0,0,1,5,22.5H98"/><rect class="cls-2" x="34.57" y="2.5" width="34.33" height="77.8" rx="5"/><path class="cls-3" d="M101.21,24.5,81.6,81.57c-.88,2.39-2.77,3.93-4.84,3.93h-51c-2.06,0-4-1.54-4.83-3.93L1.79,24.5"/><rect class="cls-4" x="38.42" y="71.5" width="27.58" height="6" rx="1.07"/></g></g></svg>