<?xml version="1.0" encoding="utf-8"?>
<!-- Generator: Adobe Illustrator 24.0.1, SVG Export Plug-In . SVG Version: 6.00 Build 0)  -->
<svg version="1.1" xmlns="http://www.w3.org/2000/svg" xmlns:xlink="http://www.w3.org/1999/xlink" x="0px" y="0px"
	 viewBox="0 0 194.6 171.9" style="enable-background:new 0 0 194.6 171.9;" xml:space="preserve">
<style type="text/css">
	.st0{fill:#4282CE;}
	.st1{fill:#FFFFFF;}
</style>
<g id="Layer_2">
	<circle class="st0" cx="103.2" cy="79.3" r="57"/>
</g>
<g id="Layer_1">
	<path class="st1" d="M141,58.7l-31.2-25.4c-3.8-3.1-9.4-3.1-13.2,0l0,0L65.3,58.7c-1.1,0.9-1.7,2.2-1.7,3.6V110
		c0,2.6,2.1,4.7,4.7,4.7h20.9c2.6,0,4.7-2.1,4.7-4.7V79.8h18.6V110c0,2.6,2.1,4.7,4.7,4.7H138c2.6,0,4.7-2.1,4.7-4.7V62.3
		C142.7,60.9,142.1,59.6,141,58.7z M138,110.1h-20.9V79.8c0-2.6-2.1-4.6-4.7-4.6H93.8c-2.6,0-4.7,2.1-4.7,4.6v30.3H68.3V62.3
		L99.5,37c2.1-1.7,5.2-1.7,7.3,0L138,62.3L138,110.1L138,110.1z"/>
</g>
</svg>
