<?xml version="1.0" encoding="utf-8"?>
<!-- Generator: Adobe Illustrator 24.0.1, SVG Export Plug-In . SVG Version: 6.00 Build 0)  -->
<svg version="1.1" xmlns="http://www.w3.org/2000/svg" xmlns:xlink="http://www.w3.org/1999/xlink" x="0px" y="0px"
	 viewBox="0 0 167.3 195.7" style="enable-background:new 0 0 167.3 195.7;" xml:space="preserve">
<style type="text/css">
	.st0{fill:#4282CE;}
	.st1{fill:#FFFFFF;}
</style>
<g id="Layer_2">
	<circle class="st0" cx="77.7" cy="104.8" r="57"/>
</g>
<g id="Layer_1">
	<path class="st1" d="M117.1,102.3c-1.3,0-2.3,1.1-2.3,2.3c0,20.7-16.9,37.6-37.6,37.6s-37.6-16.9-37.6-37.6S56.4,67,77.2,67
		c8.6,0,16.8,2.9,23.4,8.2l-7.1,1.9c-1.3,0.3-2,1.6-1.7,2.9c0.3,1,1.2,1.7,2.3,1.7c0.2,0,0.4,0,0.6-0.1l11.3-3
		c1-0.3,1.7-1.2,1.7-2.3V64.6c0-1.3-1.1-2.3-2.3-2.3c-1.3,0-2.3,1.1-2.3,2.3v6.6c-7.4-5.7-16.4-8.9-25.9-8.9
		c-23.3,0-42.3,19-42.3,42.3s19,42.3,42.3,42.3s42.3-19,42.3-42.3C119.4,103.3,118.4,102.3,117.1,102.3z"/>
	<path class="st1" d="M77.2,85.5c-19.6,0-27.6,17.4-28,18.1c-0.3,0.6-0.3,1.3,0,1.9c0.3,0.7,8.4,18.1,28,18.1s27.6-17.4,28-18.1
		c0.3-0.6,0.3-1.3,0-1.9C104.8,102.9,96.8,85.5,77.2,85.5z M77.2,119c-14.3,0-21.4-11-23.2-14.4c1.8-3.4,8.9-14.4,23.2-14.4
		c14.3,0,21.4,11,23.2,14.4C98.5,108,91.4,119,77.2,119z"/>
	<path class="st1" d="M77.2,95.2c-5.2,0-9.4,4.2-9.4,9.4c0,5.2,4.2,9.4,9.4,9.4c5.2,0,9.4-4.2,9.4-9.4
		C86.6,99.4,82.3,95.2,77.2,95.2z M77.2,109.3c-2.6,0-4.7-2.1-4.7-4.7s2.1-4.7,4.7-4.7c2.6,0,4.7,2.1,4.7,4.7S79.8,109.3,77.2,109.3
		z"/>
</g>
</svg>
