<svg xmlns="http://www.w3.org/2000/svg" xmlns:xlink="http://www.w3.org/1999/xlink" viewBox="0 0 96.43 111"><defs><style>.cls-1{fill:#f9f9fa;}.cls-2{fill:url(#linear-gradient);}.cls-3{fill:url(#linear-gradient-2);}.cls-4{fill:url(#linear-gradient-3);}.cls-5{fill:url(#linear-gradient-4);}.cls-6{fill:url(#linear-gradient-5);}.cls-7{fill:url(#linear-gradient-6);}.cls-8{fill:url(#linear-gradient-7);}.cls-9{fill:url(#linear-gradient-8);}.cls-10{fill:url(#linear-gradient-9);}.cls-11{fill:url(#linear-gradient-10);}.cls-12{fill:url(#linear-gradient-11);}.cls-13{fill:url(#linear-gradient-12);}.cls-14{fill:#2aaae1;}.cls-15{fill:url(#linear-gradient-13);}.cls-16{fill:url(#linear-gradient-14);}</style><linearGradient id="linear-gradient" x1="12.54" y1="15.51" x2="69.78" y2="15.51" gradientUnits="userSpaceOnUse"><stop offset="0" stop-color="#29abe2"/><stop offset="1" stop-color="#167bbb"/></linearGradient><linearGradient id="linear-gradient-2" x1="4.49" y1="15.51" x2="10.18" y2="15.51" xlink:href="#linear-gradient"/><linearGradient id="linear-gradient-3" x1="12.54" y1="32.19" x2="69.78" y2="32.19" xlink:href="#linear-gradient"/><linearGradient id="linear-gradient-4" x1="4.49" y1="32.19" x2="10.18" y2="32.19" xlink:href="#linear-gradient"/><linearGradient id="linear-gradient-5" x1="12.54" y1="48.87" x2="69.78" y2="48.87" xlink:href="#linear-gradient"/><linearGradient id="linear-gradient-6" x1="4.49" y1="48.87" x2="10.18" y2="48.87" xlink:href="#linear-gradient"/><linearGradient id="linear-gradient-7" x1="12.54" y1="64.5" x2="69.78" y2="64.5" xlink:href="#linear-gradient"/><linearGradient id="linear-gradient-8" x1="4.49" y1="64.5" x2="10.18" y2="64.5" xlink:href="#linear-gradient"/><linearGradient id="linear-gradient-9" x1="13.31" y1="79.85" x2="70.55" y2="79.85" xlink:href="#linear-gradient"/><linearGradient id="linear-gradient-10" x1="5.26" y1="79.85" x2="10.95" y2="79.85" xlink:href="#linear-gradient"/><linearGradient id="linear-gradient-11" x1="13.31" y1="95.49" x2="70.55" y2="95.49" xlink:href="#linear-gradient"/><linearGradient id="linear-gradient-12" x1="5.26" y1="95.49" x2="10.95" y2="95.49" xlink:href="#linear-gradient"/><linearGradient id="linear-gradient-13" x1="29.39" y1="57.43" x2="58.43" y2="57.43" xlink:href="#linear-gradient"/><linearGradient id="linear-gradient-14" x1="38.16" y1="57.43" x2="49.67" y2="57.43" xlink:href="#linear-gradient"/></defs><title>review_2</title><g id="Layer_2" data-name="Layer 2"><g id="Layer_1-2" data-name="Layer 1"><path class="cls-1" d="M3,0H72a3,3,0,0,1,3,3V97a0,0,0,0,1,0,0H0a0,0,0,0,1,0,0V3A3,3,0,0,1,3,0Z"/><path class="cls-1" d="M3,14H72a3,3,0,0,1,3,3v94a0,0,0,0,1,0,0H0a0,0,0,0,1,0,0V17A3,3,0,0,1,3,14Z" transform="translate(75.04 125) rotate(180)"/><rect class="cls-2" x="12.54" y="12.55" width="57.24" height="5.92" rx="2.84"/><ellipse class="cls-3" cx="7.34" cy="15.51" rx="2.85" ry="2.96"/><rect class="cls-4" x="12.54" y="29.23" width="57.24" height="5.92" rx="2.84"/><ellipse class="cls-5" cx="7.34" cy="32.19" rx="2.85" ry="2.96"/><rect class="cls-6" x="12.54" y="45.91" width="57.24" height="5.92" rx="2.84"/><ellipse class="cls-7" cx="7.34" cy="48.87" rx="2.85" ry="2.96"/><rect class="cls-8" x="12.54" y="61.54" width="57.24" height="5.92" rx="2.84"/><ellipse class="cls-9" cx="7.34" cy="64.5" rx="2.85" ry="2.96"/><rect class="cls-10" x="13.31" y="76.89" width="57.24" height="5.92" rx="2.84"/><ellipse class="cls-11" cx="8.11" cy="79.85" rx="2.85" ry="2.96"/><rect class="cls-12" x="13.31" y="92.53" width="57.24" height="5.92" rx="2.84"/><ellipse class="cls-13" cx="8.11" cy="95.49" rx="2.85" ry="2.96"/></g><g id="Layer_5" data-name="Layer 5"><path class="cls-1" d="M43.91,76.6A19.15,19.15,0,1,1,57.47,71,19,19,0,0,1,43.91,76.6Z"/><path class="cls-14" d="M43.91,39.76a17.67,17.67,0,1,1-12.49,5.18,17.56,17.56,0,0,1,12.49-5.18m0-3a20.68,20.68,0,1,0,14.62,6.06,20.57,20.57,0,0,0-14.62-6.06Z"/><path class="cls-1" d="M92.48,109.8a1.39,1.39,0,0,1-1-.4L56.23,74.1a1.35,1.35,0,0,1,0-1.93l1.58-1.58a1.33,1.33,0,0,1,1-.4,1.35,1.35,0,0,1,1,.4L95,105.88a1.38,1.38,0,0,1,0,1.94l-1.58,1.58A1.4,1.4,0,0,1,92.48,109.8Z"/><path class="cls-14" d="M58.77,71.19a.36.36,0,0,1,.26.11l35.29,35.29a.36.36,0,0,1,0,.52l-1.58,1.58a.35.35,0,0,1-.26.11.36.36,0,0,1-.26-.11L56.93,73.4a.37.37,0,0,1,0-.52l1.58-1.58a.36.36,0,0,1,.26-.11m0-2a2.33,2.33,0,0,0-1.67.7l-1.58,1.57a2.38,2.38,0,0,0,0,3.35L90.81,110.1a2.35,2.35,0,0,0,3.35,0l1.58-1.58a2.37,2.37,0,0,0,0-3.34L60.45,69.89a2.35,2.35,0,0,0-1.68-.7Z"/><ellipse class="cls-1" cx="43.91" cy="57.43" rx="14.52" ry="6.5"/><path class="cls-15" d="M43.91,51.93c8,0,13.52,2.9,13.52,5.5s-5.55,5.5-13.52,5.5S30.39,60,30.39,57.43s5.56-5.5,13.52-5.5m0-1c-8,0-14.52,2.91-14.52,6.5s6.5,6.5,14.52,6.5S58.43,61,58.43,57.43s-6.5-6.5-14.52-6.5Z"/><ellipse class="cls-1" cx="43.91" cy="57.43" rx="5.75" ry="6.16"/><path class="cls-16" d="M43.91,52.27a5.18,5.18,0,1,1-4.75,5.16,5,5,0,0,1,4.75-5.16m0-1a6.17,6.17,0,1,0,5.76,6.16,6,6,0,0,0-5.76-6.16Z"/></g></g></svg>