<?xml version="1.0" encoding="utf-8"?>
<!-- Generator: Adobe Illustrator 24.0.1, SVG Export Plug-In . SVG Version: 6.00 Build 0)  -->
<svg version="1.1" id="Layer_1" xmlns="http://www.w3.org/2000/svg" xmlns:xlink="http://www.w3.org/1999/xlink" x="0px" y="0px"
	 viewBox="0 0 100 125" style="enable-background:new 0 0 100 125;" xml:space="preserve">
<style type="text/css">
	.st0{fill:#FFFFFF;}
</style>
<path class="st0" d="M63.9,63c-0.9,0-1.7,0.8-1.7,1.7c0,14.8-12.1,26.9-26.9,26.9S8.4,79.6,8.4,64.7s12.1-26.9,26.9-26.9
	c6.2,0,12,2.1,16.8,5.9L46.9,45c-0.9,0.2-1.4,1.2-1.2,2.1c0.2,0.8,0.9,1.2,1.6,1.2c0.1,0,0.3,0,0.4-0.1l8.1-2.2
	c0.7-0.2,1.2-0.9,1.2-1.6v-8.4c0-0.9-0.8-1.7-1.7-1.7c-0.9,0-1.7,0.8-1.7,1.7v4.7c-5.3-4.1-11.7-6.3-18.5-6.3C18.6,34.4,5,48,5,64.7
	S18.6,95,35.3,95s30.3-13.6,30.3-30.3C65.6,63.8,64.8,63,63.9,63z"/>
<path class="st0" d="M35.3,51.1c-14,0-19.8,12.4-20,13c-0.2,0.4-0.2,0.9,0,1.4c0.2,0.5,6,13,20,13s19.8-12.4,20-13
	c0.2-0.4,0.2-0.9,0-1.4C55.1,63.5,49.3,51.1,35.3,51.1z M35.3,75C25.1,75,20,67.1,18.7,64.7c1.3-2.4,6.4-10.3,16.6-10.3
	c10.2,0,15.3,7.9,16.6,10.3C50.6,67.1,45.5,75,35.3,75z"/>
<path class="st0" d="M35.3,58c-3.7,0-6.7,3-6.7,6.7c0,3.7,3,6.7,6.7,6.7s6.7-3,6.7-6.7C42,61,39,58,35.3,58z M35.3,68.1
	c-1.9,0-3.4-1.5-3.4-3.4c0-1.9,1.5-3.4,3.4-3.4s3.4,1.5,3.4,3.4C38.6,66.6,37.1,68.1,35.3,68.1z"/>
</svg>
