<?xml version="1.0" encoding="utf-8"?>
<!-- Generator: Adobe Illustrator 24.0.1, SVG Export Plug-In . SVG Version: 6.00 Build 0)  -->
<svg version="1.1" id="Layer_1" xmlns="http://www.w3.org/2000/svg" xmlns:xlink="http://www.w3.org/1999/xlink" x="0px" y="0px"
	 viewBox="0 0 100 125" style="enable-background:new 0 0 100 125;" xml:space="preserve">
<style type="text/css">
	.st0{fill:#FFFFFF;}
</style>
<title>75</title>
<g>
	<path class="st0" d="M4.4,25.1v30.4c0,1.5,1.2,2.7,2.7,2.7h72.4c2.4,0,3.7,2.9,1.9,4.7L73.3,71c-1.1,1.1-1.1,2.8,0,3.9l0,0
		c1.1,1,2.8,1,3.8,0l17.5-17.5c1.1-1.1,1.1-2.8,0-3.9L77.3,36c-1.1-1.1-2.8-1.1-3.8,0l0,0c-1.1,1.1-1.1,2.8,0,3.9l8.1,8.1
		c1.7,1.7,0.5,4.7-1.9,4.7H12.6c-1.5,0-2.7-1.2-2.7-2.7V25.1c0-1.5-1.2-2.7-2.7-2.7h0C5.7,22.4,4.4,23.6,4.4,25.1z"/>
</g>
</svg>
