<?xml version="1.0" encoding="utf-8"?>
<!-- Generator: Adobe Illustrator 24.0.1, SVG Export Plug-In . SVG Version: 6.00 Build 0)  -->
<svg version="1.1" id="Layer_1" xmlns="http://www.w3.org/2000/svg" xmlns:xlink="http://www.w3.org/1999/xlink" x="0px" y="0px"
	 viewBox="0 0 100 125" style="enable-background:new 0 0 100 125;" xml:space="preserve">
<style type="text/css">
	.st0{fill:#FFFFFF;}
</style>
<g>
	<path class="st0" d="M73.3,69.5c0,2.1-1.7,3.7-3.7,3.7h-49c-0.9,0-1.6-0.7-1.6-1.5V58.4c0-1.2-1-2.2-2.2-2.2h0
		c-1.2,0-2.2,1-2.2,2.2v13.4c0,3.3,2.7,6,6.1,6h48.9c4.6,0,8.3-3.7,8.3-8.3V58.4c0-1.2-1-2.2-2.2-2.2h0c-1.2,0-2.2,1-2.2,2.2V69.5z"
		/>
	<path class="st0" d="M47.9,60.5V35.4l4,3.4c0.9,0.8,2.3,0.7,3.2-0.2v0c0.8-0.9,0.7-2.4-0.2-3.2l-7.6-6.6c-0.8-0.7-2.1-0.7-2.9,0
		l-7.6,6.6c-0.9,0.8-1,2.2-0.2,3.2v0c0.8,0.9,2.2,1,3.2,0.2l4-3.4v25.1c0,1.2,1,2.2,2.2,2.2h0C46.9,62.6,47.9,61.7,47.9,60.5z"/>
</g>
</svg>
