<svg xmlns="http://www.w3.org/2000/svg" viewBox="0 0 108 108"><defs><style>.cls-1,.cls-5{fill:#d8d8d8;}.cls-2,.cls-3,.cls-4{fill:none;}.cls-2,.cls-5{stroke:#0d0d0d;}.cls-2,.cls-3,.cls-4,.cls-5{stroke-miterlimit:10;}.cls-2,.cls-3{stroke-width:0.5px;}.cls-3{stroke:#000;}.cls-4{stroke:#231f20;}.cls-6{fill:#0d0d0d;}</style></defs><title>ty_sign</title><g id="Layer_2" data-name="Layer 2"><g id="Layer_9" data-name="Layer 9"><circle class="cls-1" cx="54" cy="54" r="54"/><path class="cls-2" d="M67,33.77c0,1.63-4.37,3-9.75,3s-9.75-1.33-9.75-3c0-1.45,3-2.51,7.5-2.54.6,0,1.36.84,2,.84.81,0,1.24-.85,2-.84C63.34,31.27,67,32.38,67,33.77Z"/><path class="cls-3" d="M66.88,33.48c-.78.34-10.54,1.65-19.35-.14"/><path class="cls-4" d="M34.62,24c1.72,16.57,16.54,26.81,28.85,24.17,9.22-2,16.82-11.17,17.92-22.61"/><path class="cls-5" d="M33.46,94.31c.37-1.09.5-3.25-.78-7.54a51.36,51.36,0,0,0-5.6-12.28,3,3,0,0,1-.43-2.13c.66-3.72,2.54-15.35,1.41-20.46a1.82,1.82,0,0,1,1.4-2.17c1.89-.35,4.62.56,5.15,8.4a1,1,0,0,1,0,.37L30.73,69.23c1.45.17,11.2-31.75,17.93-36.63,0,0,4.67-2.34,2.33,4.68S42.42,59.1,42.42,59.1L52.84,34.55a3.52,3.52,0,0,1,2.54-2.15c1.07-.19,2.24.2,2.63,2.54.78,4.67-7,24.16-7,24.16l7.58-21.22a3,3,0,0,1,.75-1.15c1.21-1.16,4.11-3.29,4.14,2.78a.44.44,0,0,1,0,.2L58.79,62.22,62.53,48a2,2,0,0,1,.75-1.11c1-.69,2.74-1.54,3.3,1.28.75,3.73-2.07,15.3-2.32,16.3a.68.68,0,0,0,0,.15l-.77,10.83a28.92,28.92,0,0,1-7,14.81c-3.19,3.59-5.19,5.87-5.75,7.73"/><path class="cls-4" d="M56.45,10s.78,5.46,0,7-4.68,12.47,4.68,7c0,0,5.45-2.33,0-3.89"/><path class="cls-4" d="M55.45,19.85s-5.24,1.06,0,5"/><path class="cls-6" d="M47.7,67.86s13.69-2.49,21.16,18.67l-2.49,1.24S60.7,69.34,47.7,70.35Z"/><path class="cls-6" d="M71.22,94.9l1.24-10.32a.15.15,0,0,0-.2-.14l-9.55,4.08a.14.14,0,0,0,0,.24L71,95A.14.14,0,0,0,71.22,94.9Z"/></g></g></svg>