<svg xmlns="http://www.w3.org/2000/svg" xmlns:xlink="http://www.w3.org/1999/xlink" viewBox="0 0 75.03 109.65"><defs><style>.cls-1{fill:#f9f9fa;}.cls-2,.cls-3,.cls-4,.cls-5,.cls-6,.cls-7{fill:none;stroke-miterlimit:10;stroke-width:4px;}.cls-2{stroke:url(#linear-gradient);}.cls-3{stroke:url(#linear-gradient-2);}.cls-4{stroke:url(#linear-gradient-3);}.cls-5{stroke:url(#linear-gradient-4);}.cls-6{stroke:url(#linear-gradient-5);}.cls-7{stroke:url(#linear-gradient-6);}.cls-8{fill:url(#linear-gradient-7);}.cls-9{fill:url(#linear-gradient-8);}</style><linearGradient id="linear-gradient" x1="28.49" y1="56.85" x2="37.05" y2="56.85" gradientUnits="userSpaceOnUse"><stop offset="0" stop-color="#29abe2"/><stop offset="1" stop-color="#167bbb"/></linearGradient><linearGradient id="linear-gradient-2" x1="39" y1="56.78" x2="47.57" y2="56.78" xlink:href="#linear-gradient"/><linearGradient id="linear-gradient-3" x1="20.23" y1="66.92" x2="55.47" y2="66.92" xlink:href="#linear-gradient"/><linearGradient id="linear-gradient-4" x1="20.23" y1="46.42" x2="55.47" y2="46.42" xlink:href="#linear-gradient"/><linearGradient id="linear-gradient-5" x1="15.66" y1="56.71" x2="60.4" y2="56.71" xlink:href="#linear-gradient"/><linearGradient id="linear-gradient-6" x1="17.66" y1="56.71" x2="58.4" y2="56.71" xlink:href="#linear-gradient"/><linearGradient id="linear-gradient-7" x1="13.77" y1="95.71" x2="62.92" y2="95.71" xlink:href="#linear-gradient"/><linearGradient id="linear-gradient-8" x1="13.77" y1="13.95" x2="62.92" y2="13.95" xlink:href="#linear-gradient"/></defs><title>citizenship</title><g id="Layer_2" data-name="Layer 2"><g id="Layer_1-2" data-name="Layer 1"><rect class="cls-1" width="75.03" height="109.65" rx="5"/><path class="cls-2" d="M35.16,76.87l-2.77-8.32a37.05,37.05,0,0,1,0-23.41l2.77-8.31"/><path class="cls-3" d="M40.9,76.81l2.77-8.32a37.05,37.05,0,0,0,0-23.41L40.9,36.76"/><path class="cls-4" d="M20.88,69l7.05-2.4a30.65,30.65,0,0,1,19.84,0l7,2.4"/><path class="cls-5" d="M54.82,44.35l-7,2.4a30.78,30.78,0,0,1-19.84,0l-7-2.4"/><ellipse class="cls-6" cx="38.03" cy="56.71" rx="20.37" ry="20.6"/><line class="cls-7" x1="17.66" y1="56.71" x2="58.4" y2="56.71"/><rect class="cls-8" x="13.77" y="92.5" width="49.15" height="6.42" rx="2.84"/><rect class="cls-9" x="13.77" y="10.74" width="49.15" height="6.42" rx="2.84"/></g></g></svg>