<svg xmlns="http://www.w3.org/2000/svg" xmlns:xlink="http://www.w3.org/1999/xlink" viewBox="0 0 99.26 112.95"><defs><style>.cls-1{fill:#f9f9fa;}.cls-2{fill:none;stroke:#f9f9fa;stroke-miterlimit:10;stroke-width:3px;}.cls-3{fill:url(#linear-gradient);}.cls-4{fill:url(#linear-gradient-2);}.cls-5{fill:url(#linear-gradient-3);}</style><linearGradient id="linear-gradient" x1="707.75" y1="289.58" x2="781.55" y2="289.58" gradientTransform="translate(215.47 -707.79) rotate(82.41)" gradientUnits="userSpaceOnUse"><stop offset="0" stop-color="#29abe2"/><stop offset="1" stop-color="#167bbb"/></linearGradient><linearGradient id="linear-gradient-2" x1="776.54" y1="230.57" x2="850.53" y2="230.57" gradientTransform="translate(279.84 -742.86) rotate(90)" xlink:href="#linear-gradient"/><linearGradient id="linear-gradient-3" x1="852.35" y1="-793.84" x2="926.14" y2="-793.84" gradientTransform="matrix(-0.13, 0.99, 0.99, 0.13, 976.81, -707.79)" xlink:href="#linear-gradient"/></defs><title>delete</title><g id="Layer_2" data-name="Layer 2"><g id="Layer_1-2" data-name="Layer 1"><path class="cls-1" d="M80.78,113H18.19a3,3,0,0,1-3-2.62L5.9,29.57a3,3,0,0,1,3-3.28H90.09a3,3,0,0,1,3,3.28l-9.31,80.76A3,3,0,0,1,80.78,113Z"/><rect class="cls-1" y="11.49" width="99.26" height="21.14" rx="10"/><rect class="cls-2" x="33.27" y="1.5" width="32.18" height="75.9" rx="5"/><path class="cls-3" d="M28,102.65,20.34,35.27a3,3,0,0,1,2.21-3.38h0a2.66,2.66,0,0,1,2.87,2.58l7.67,67.39a3,3,0,0,1-2.21,3.37h0A2.68,2.68,0,0,1,28,102.65Z"/><rect class="cls-4" x="46.71" y="33.68" width="5.13" height="73.98" rx="2.56"/><path class="cls-5" d="M71.25,103l7.66-67.38a3,3,0,0,0-2.2-3.37h0a2.67,2.67,0,0,0-2.88,2.58l-7.66,67.38a3,3,0,0,0,2.2,3.37h0A2.67,2.67,0,0,0,71.25,103Z"/></g></g></svg>