<svg id="Layer_1" data-name="Layer 1" xmlns="http://www.w3.org/2000/svg" viewBox="0 0 77.73 115.86"><defs><style>.cls-1,.cls-2{fill:#fff;}.cls-1,.cls-2,.cls-3{stroke:#29abe2;stroke-miterlimit:10;}.cls-1{stroke-width:0.5px;}.cls-2,.cls-3{stroke-width:2px;}</style></defs><title>education_white_revisited</title><rect class="cls-1" x="65.61" y="28.33" width="1.61" height="12.33"/><path class="cls-2" d="M36.78,53.16l-28.57-22a3.43,3.43,0,0,1,.12-5.36L40.65,4.28a2.49,2.49,0,0,1,2.91.09L71.41,24.93a3.42,3.42,0,0,1,.51,4.83,3.08,3.08,0,0,1-.51.51L39.81,53.16A2.51,2.51,0,0,1,36.78,53.16Z" transform="translate(-1.07 -2.86)"/><ellipse class="cls-2" cx="39.22" cy="30.73" rx="19.31" ry="8.36"/><polyline class="cls-2" points="58.53 31.02 58.53 49.49 19.91 49.49 19.91 31.33"/><ellipse class="cls-3" cx="39.22" cy="49.77" rx="19.31" ry="8.36"/><path class="cls-1" d="M68.21,67.14H66.77A1,1,0,0,1,65.92,66v0l.72-17.35a1,1,0,0,1,.85-1h0a.94.94,0,0,1,.85,1L69.06,66A1,1,0,0,1,68.21,67.14Z" transform="translate(-1.07 -2.86)"/><ellipse class="cls-1" cx="66.41" cy="43.74" rx="4.04" ry="5.14"/><path class="cls-2" d="M74.43,117.71a3.36,3.36,0,0,0,3.38-3.35c0-.1,0-.2,0-.31a38,38,0,0,0-75.7,0,3.36,3.36,0,0,0,3,3.65h69.3Z" transform="translate(-1.07 -2.86)"/><path class="cls-2" d="M59.56,58.66a19.36,19.36,0,0,1-38.71,0C20.85,48,29.49,45,40.17,45S59.56,48,59.56,58.66Z" transform="translate(-1.07 -2.86)"/></svg>