<svg xmlns="http://www.w3.org/2000/svg" viewBox="0 0 128.32 111.53"><defs><style>.cls-1,.cls-3{fill:none;}.cls-2{fill:#f9f9fa;}.cls-3{stroke:#f9f9fa;stroke-miterlimit:10;}</style></defs><title>etchnic_origin</title><g id="Layer_2" data-name="Layer 2"><g id="Layer_1-2" data-name="Layer 1"><line class="cls-1" x1="87" y1="84.53" x2="79.96" y2="84.53"/><path class="cls-2" d="M89.76,1A18.8,18.8,0,1,1,71,19.8,18.82,18.82,0,0,1,89.76,1m0-1a19.79,19.79,0,1,0,12.45,4.4A19.79,19.79,0,0,0,89.76,0Z"/><path class="cls-2" d="M89.76,41.82A37.71,37.71,0,0,1,127.3,75.9a2.33,2.33,0,0,1-.61,1.83,2.46,2.46,0,0,1-1.82.8H54.65a2.48,2.48,0,0,1-1.82-.8,2.33,2.33,0,0,1-.61-1.83A37.71,37.71,0,0,1,89.76,41.82m0-1a38.72,38.72,0,0,0-38.54,35,3.43,3.43,0,0,0,3.43,3.72h70.22a3.42,3.42,0,0,0,3.43-3.72,38.71,38.71,0,0,0-38.54-35Z"/><path class="cls-2" d="M39,42.37A38.18,38.18,0,0,1,77,76.86a2.38,2.38,0,0,1-.62,1.86,2.5,2.5,0,0,1-1.85.81h-71a2.51,2.51,0,0,1-1.85-.81A2.46,2.46,0,0,1,1,76.86,38.18,38.18,0,0,1,39,42.37m0-1A39.16,39.16,0,0,0,0,76.77a3.46,3.46,0,0,0,3.46,3.76h71A3.46,3.46,0,0,0,78,76.77a39.17,39.17,0,0,0-39-35.4Z"/><line class="cls-3" x1="53.66" y1="6.04" x2="25.66" y2="34.04"/><line class="cls-3" x1="59.56" y1="16.85" x2="36.96" y2="39.45"/><line class="cls-3" x1="43.35" y1="0.64" x2="20.75" y2="23.24"/><path class="cls-2" d="M39.86,1.25A19,19,0,0,1,53.31,33.72a19,19,0,0,1-26.9-26.9A18.9,18.9,0,0,1,39.86,1.25m0-1A20,20,0,1,0,54,6.11,19.95,19.95,0,0,0,39.86.25Z"/><line class="cls-3" x1="56.24" y1="45.58" x2="21.43" y2="80.38"/><line class="cls-3" x1="66.43" y1="52.28" x2="38.49" y2="80.22"/><line class="cls-3" x1="43.96" y1="42.32" x2="5.95" y2="80.33"/><line class="cls-3" x1="73.09" y1="61.44" x2="54.39" y2="80.14"/><line class="cls-3" x1="26.34" y1="43.75" x2="2.37" y2="67.72"/><path class="cls-2" d="M87.57,49.66A20.5,20.5,0,1,1,80,33.72,20.5,20.5,0,0,1,87.57,49.66Z"/><path class="cls-2" d="M103.44,111.53a3.55,3.55,0,0,0,3.55-3.85,40.1,40.1,0,0,0-79.83,0,3.54,3.54,0,0,0,3.54,3.85Z"/></g></g></svg>