<svg xmlns="http://www.w3.org/2000/svg" xmlns:xlink="http://www.w3.org/1999/xlink" viewBox="0 0 94 116"><defs><style>.cls-1{fill:#f9f9fa;}.cls-2{fill:url(#linear-gradient);}.cls-3{font-size:54.18px;fill:#29abe2;font-family:HelveticaNeue, Helvetica Neue;}</style><linearGradient id="linear-gradient" x1="47.48" y1="33.45" x2="47.48" y2="22.55" gradientUnits="userSpaceOnUse"><stop offset="0" stop-color="#29abe2"/><stop offset="1" stop-color="#167bbb"/></linearGradient></defs><title>income</title><g id="Layer_2" data-name="Layer 2"><g id="Layer_1-2" data-name="Layer 1"><path class="cls-1" d="M0,82.5c0,22.67,21,30.88,47,30.88s47-8.21,47-30.88S73,31.27,47,31.27,0,59.82,0,82.5Z"/><path class="cls-1" d="M58.53,2.39c0-6-4.63,1.24-11.52,1.24S33.57-3.63,33.57,2.39s6.55,23,13.44,23S58.53,8.41,58.53,2.39Z"/><ellipse class="cls-1" cx="47.48" cy="28" rx="7.19" ry="5.45"/><path class="cls-2" d="M47.48,23.05c3.69,0,6.69,2.22,6.69,4.95s-3,5-6.69,5-6.69-2.22-6.69-5,3-4.95,6.69-4.95m0-.5c-4,0-7.19,2.44-7.19,5.45s3.22,5.45,7.19,5.45S54.67,31,54.67,28s-3.22-5.45-7.19-5.45Z"/><text class="cls-3" transform="translate(33.76 89.94) scale(1.01 1)">$</text></g></g></svg>