<svg xmlns="http://www.w3.org/2000/svg" xmlns:xlink="http://www.w3.org/1999/xlink" viewBox="0 0 104.07 113.76"><defs><style>.cls-1,.cls-10,.cls-11,.cls-12,.cls-13,.cls-14,.cls-15,.cls-16,.cls-2,.cls-3,.cls-4,.cls-5,.cls-6,.cls-7,.cls-8,.cls-9{fill:#f9f9fa;}.cls-10,.cls-11,.cls-12,.cls-13,.cls-14,.cls-15,.cls-16,.cls-2,.cls-3,.cls-4,.cls-5,.cls-6,.cls-7,.cls-8,.cls-9{stroke-miterlimit:10;}.cls-2{stroke-width:2px;stroke:url(#linear-gradient);}.cls-3{stroke:url(#linear-gradient-2);}.cls-4{stroke:url(#linear-gradient-3);}.cls-5{stroke:url(#linear-gradient-4);}.cls-6{stroke:url(#linear-gradient-5);}.cls-7{stroke:url(#linear-gradient-6);}.cls-8{stroke:url(#linear-gradient-7);}.cls-9{stroke:url(#linear-gradient-8);}.cls-10{stroke:url(#linear-gradient-9);}.cls-11{stroke:url(#linear-gradient-10);}.cls-12{stroke:url(#linear-gradient-11);}.cls-13{stroke:url(#linear-gradient-12);}.cls-14{stroke:url(#linear-gradient-13);}.cls-15{stroke:url(#linear-gradient-14);}.cls-16{stroke:url(#linear-gradient-15);}.cls-17{font-size:16.39px;fill:#29abe2;font-family:HelveticaNeue, Helvetica Neue;}</style><linearGradient id="linear-gradient" x1="59.23" y1="74.03" x2="103.25" y2="74.03" gradientUnits="userSpaceOnUse"><stop offset="0" stop-color="#29abe2"/><stop offset="1" stop-color="#167bbb"/></linearGradient><linearGradient id="linear-gradient-2" x1="60.22" y1="108.44" x2="103.24" y2="108.44" xlink:href="#linear-gradient"/><linearGradient id="linear-gradient-3" x1="60.22" y1="106.78" x2="103.24" y2="106.78" xlink:href="#linear-gradient"/><linearGradient id="linear-gradient-4" x1="61.05" y1="105.95" x2="104.07" y2="105.95" xlink:href="#linear-gradient"/><linearGradient id="linear-gradient-5" x1="60.22" y1="105.95" x2="103.24" y2="105.95" xlink:href="#linear-gradient"/><linearGradient id="linear-gradient-6" x1="61.05" y1="105.12" x2="104.07" y2="105.12" xlink:href="#linear-gradient"/><linearGradient id="linear-gradient-7" x1="59.39" y1="104.29" x2="102.41" y2="104.29" xlink:href="#linear-gradient"/><linearGradient id="linear-gradient-8" x1="60.22" y1="103.46" x2="103.24" y2="103.46" xlink:href="#linear-gradient"/><linearGradient id="linear-gradient-9" x1="59.39" y1="102.63" x2="102.41" y2="102.63" xlink:href="#linear-gradient"/><linearGradient id="linear-gradient-10" x1="60.22" y1="101.8" x2="103.24" y2="101.8" xlink:href="#linear-gradient"/><linearGradient id="linear-gradient-11" x1="59.39" y1="100.97" x2="102.41" y2="100.97" xlink:href="#linear-gradient"/><linearGradient id="linear-gradient-12" x1="60.22" y1="100.14" x2="103.24" y2="100.14" xlink:href="#linear-gradient"/><linearGradient id="linear-gradient-13" x1="58.56" y1="99.31" x2="101.58" y2="99.31" xlink:href="#linear-gradient"/><linearGradient id="linear-gradient-14" x1="59.39" y1="98.48" x2="102.41" y2="98.48" xlink:href="#linear-gradient"/><linearGradient id="linear-gradient-15" x1="58.56" y1="97.65" x2="101.58" y2="97.65" xlink:href="#linear-gradient"/></defs><title>income_sources</title><g id="Layer_2" data-name="Layer 2"><g id="Layer_1-2" data-name="Layer 1"><path class="cls-1" d="M81.89,52.73H5.31A5.31,5.31,0,0,1,0,47.42V16.24a5.31,5.31,0,0,1,5.31-5.31H81.89A20.37,20.37,0,0,1,102.25,31.3v1.07A20.36,20.36,0,0,1,81.89,52.73Z"/><rect class="cls-1" x="60.45" y="27.65" width="41.8" height="45.66"/><ellipse class="cls-2" cx="81.24" cy="74.03" rx="21.01" ry="4.82"/><rect class="cls-1" x="62.7" y="7.07" width="3.22" height="5.14"/><rect class="cls-1" x="51.45" y="1.29" width="25.72" height="7.07" rx="3.45"/><rect class="cls-1" x="61.74" width="5.14" height="3.86" rx="1.71"/><ellipse class="cls-3" cx="81.73" cy="108.44" rx="21.01" ry="4.82"/><ellipse class="cls-4" cx="81.73" cy="106.78" rx="21.01" ry="4.82"/><ellipse class="cls-5" cx="82.56" cy="105.95" rx="21.01" ry="4.82"/><ellipse class="cls-6" cx="81.73" cy="105.95" rx="21.01" ry="4.82"/><ellipse class="cls-7" cx="82.56" cy="105.12" rx="21.01" ry="4.82"/><ellipse class="cls-8" cx="80.9" cy="104.29" rx="21.01" ry="4.82"/><ellipse class="cls-9" cx="81.73" cy="103.46" rx="21.01" ry="4.82"/><ellipse class="cls-10" cx="80.9" cy="102.63" rx="21.01" ry="4.82"/><ellipse class="cls-11" cx="81.73" cy="101.8" rx="21.01" ry="4.82"/><ellipse class="cls-12" cx="80.9" cy="100.97" rx="21.01" ry="4.82"/><ellipse class="cls-13" cx="81.73" cy="100.14" rx="21.01" ry="4.82"/><ellipse class="cls-14" cx="80.07" cy="99.31" rx="21.01" ry="4.82"/><ellipse class="cls-15" cx="80.9" cy="98.48" rx="21.01" ry="4.82"/><ellipse class="cls-16" cx="80.07" cy="97.65" rx="21.01" ry="4.82"/><text class="cls-17" transform="matrix(0.02, 0.62, -1, 0.04, 73.66, 94.76)">$</text></g></g></svg>