<svg xmlns="http://www.w3.org/2000/svg" xmlns:xlink="http://www.w3.org/1999/xlink" viewBox="0 0 115.32 119.13"><defs><style>.cls-1{fill:none;stroke:#fff;stroke-miterlimit:10;stroke-width:5px;}.cls-2{fill:#fff;}.cls-3{fill:url(#linear-gradient);}.cls-4{fill:url(#linear-gradient-2);}</style><linearGradient id="linear-gradient" x1="62.18" y1="76.44" x2="90.17" y2="76.44" gradientUnits="userSpaceOnUse"><stop offset="0" stop-color="#29abe2"/><stop offset="1" stop-color="#167bbb"/></linearGradient><linearGradient id="linear-gradient-2" x1="62.18" y1="86.35" x2="90.17" y2="86.35" xlink:href="#linear-gradient"/></defs><title>language</title><g id="Layer_2" data-name="Layer 2"><g id="Layer_1-2" data-name="Layer 1"><circle class="cls-1" cx="45.95" cy="45.95" r="43.45"/><path class="cls-1" d="M9.36,71.87l15-5.07a66.4,66.4,0,0,1,42.34,0l15,5.07"/><path class="cls-1" d="M81.78,19.88,66.74,25A66.27,66.27,0,0,1,24.4,25l-15-5.07"/><line class="cls-1" x1="2.5" y1="45.95" x2="89.4" y2="45.95"/><path class="cls-1" d="M39.82,88.47l-5.9-17.54a77.25,77.25,0,0,1,0-49.37L39.82,4"/><path class="cls-1" d="M52.08,88.33,58,70.8a77.39,77.39,0,0,0,0-49.37L52.08,3.89"/><path class="cls-2" d="M36.8,84.07c0,13.05,17.58,23.63,39.26,23.63,1.22,0,2.42,0,3.61-.1,20-1.1,35.65-11.21,35.65-23.53,0-13-17.58-23.63-39.26-23.63S36.8,71,36.8,84.07Z"/><path class="cls-2" d="M79.52,105.67l18.41,13.26a1,1,0,0,0,1.47-1.45c-4.37-6.34-9.31-16-.13-17.39L79.94,103.8A1,1,0,0,0,79.52,105.67Z"/><rect class="cls-3" x="62.18" y="73.38" width="27.98" height="6.12" rx="2.68"/><rect class="cls-4" x="62.18" y="83.29" width="27.98" height="6.12" rx="2.68"/></g></g></svg>