<svg xmlns="http://www.w3.org/2000/svg" xmlns:xlink="http://www.w3.org/1999/xlink" viewBox="0 0 124.66 106"><defs><style>.cls-1,.cls-2{fill:#fff;}.cls-10,.cls-11,.cls-12,.cls-13,.cls-14,.cls-15,.cls-2,.cls-3,.cls-4,.cls-5,.cls-6,.cls-7,.cls-8,.cls-9{stroke-miterlimit:10;stroke-width:2px;}.cls-2{stroke:url(#linear-gradient);}.cls-10,.cls-11,.cls-12,.cls-13,.cls-14,.cls-15,.cls-3,.cls-4,.cls-5,.cls-6,.cls-7,.cls-8,.cls-9{fill:none;}.cls-3{stroke:url(#linear-gradient-2);}.cls-4{stroke:url(#linear-gradient-3);}.cls-5{stroke:url(#linear-gradient-4);}.cls-6{stroke:url(#linear-gradient-5);}.cls-7{stroke:url(#linear-gradient-6);}.cls-8{stroke:url(#linear-gradient-7);}.cls-9{stroke:url(#linear-gradient-8);}.cls-10{stroke:url(#linear-gradient-9);}.cls-11{stroke:url(#linear-gradient-10);}.cls-12{stroke:url(#linear-gradient-11);}.cls-13{stroke:url(#linear-gradient-12);}.cls-14{stroke:url(#linear-gradient-13);}.cls-15{stroke:url(#linear-gradient-14);}</style><linearGradient id="linear-gradient" x1="62.33" y1="105.2" x2="62.33" gradientUnits="userSpaceOnUse"><stop offset="0" stop-color="#29abe2"/><stop offset="1" stop-color="#167bbb"/></linearGradient><linearGradient id="linear-gradient-2" x1="61.04" y1="95.51" x2="61.04" y2="2.21" gradientTransform="matrix(1, 0, 0, 0.96, 1.51, 11.23)" xlink:href="#linear-gradient"/><linearGradient id="linear-gradient-3" x1="32.5" y1="48.07" x2="32.5" y2="40.01" xlink:href="#linear-gradient"/><linearGradient id="linear-gradient-4" x1="32.5" y1="74.76" x2="32.5" y2="66.69" xlink:href="#linear-gradient"/><linearGradient id="linear-gradient-5" x1="32.5" y1="61.35" x2="32.5" y2="53.28" xlink:href="#linear-gradient"/><linearGradient id="linear-gradient-6" x1="32.5" y1="89.04" x2="32.5" y2="80.97" xlink:href="#linear-gradient"/><linearGradient id="linear-gradient-7" x1="32.5" y1="23" x2="32.5" y2="14.94" xlink:href="#linear-gradient"/><linearGradient id="linear-gradient-8" x1="32.5" y1="35.41" x2="32.5" y2="27.34" xlink:href="#linear-gradient"/><linearGradient id="linear-gradient-9" x1="89.98" y1="48.35" x2="89.98" y2="40.29" xlink:href="#linear-gradient"/><linearGradient id="linear-gradient-10" x1="89.98" y1="75.04" x2="89.98" y2="66.98" xlink:href="#linear-gradient"/><linearGradient id="linear-gradient-11" x1="89.98" y1="61.63" x2="89.98" y2="53.57" xlink:href="#linear-gradient"/><linearGradient id="linear-gradient-12" x1="89.98" y1="89.32" x2="89.98" y2="81.26" xlink:href="#linear-gradient"/><linearGradient id="linear-gradient-13" x1="89.98" y1="23.29" x2="89.98" y2="15.22" xlink:href="#linear-gradient"/><linearGradient id="linear-gradient-14" x1="89.98" y1="35.69" x2="89.98" y2="27.63" xlink:href="#linear-gradient"/></defs><title>literacy</title><g id="Layer_2" data-name="Layer 2"><g id="Layer_1-2" data-name="Layer 1"><rect class="cls-1" y="12.77" width="124.66" height="93.23"/><path class="cls-2" d="M7.29,103.06s18.82-15.78,55.19,0c0,0,26.18-14.56,54.9,0V10.82s-27.13-23.88-54.9,2.82c0,0-24.56-27.09-55.19-1.6Z"/><line class="cls-3" x1="62.48" y1="13.64" x2="62.14" y2="103.38"/><path class="cls-4" d="M12.52,47.22c2.11-1.3,22.27-13.31,39.87,0"/><path class="cls-5" d="M12.52,73.91c2.11-1.31,22.27-13.31,39.87,0"/><path class="cls-6" d="M12.52,60.5c2.11-1.31,22.27-13.31,39.87,0"/><path class="cls-7" d="M12.52,88.19c2.11-1.31,22.27-13.31,39.87,0"/><path class="cls-8" d="M12.52,22.15c2.11-1.3,22.27-13.3,39.87,0"/><path class="cls-9" d="M12.52,34.56c2.11-1.31,22.27-13.31,39.87,0"/><path class="cls-10" d="M70,47.5c2.1-1.3,22.26-13.3,39.86,0"/><path class="cls-11" d="M70,74.19c2.1-1.3,22.26-13.31,39.86,0"/><path class="cls-12" d="M70,60.78c2.1-1.3,22.26-13.31,39.86,0"/><path class="cls-13" d="M70,88.47c2.1-1.3,22.26-13.3,39.86,0"/><path class="cls-14" d="M70,22.44c2.1-1.31,22.26-13.31,39.86,0"/><path class="cls-15" d="M70,34.84c2.1-1.3,22.26-13.3,39.86,0"/></g></g></svg>