<svg xmlns="http://www.w3.org/2000/svg" xmlns:xlink="http://www.w3.org/1999/xlink" viewBox="0 0 75.04 111"><defs><style>.cls-1{fill:#f9f9fa;}.cls-2{fill:url(#linear-gradient);}.cls-3{fill:url(#linear-gradient-2);}.cls-4{fill:url(#linear-gradient-3);}.cls-5{fill:url(#linear-gradient-4);}.cls-6{fill:url(#linear-gradient-5);}.cls-7{fill:url(#linear-gradient-6);}.cls-8{fill:url(#linear-gradient-7);}.cls-9{fill:url(#linear-gradient-8);}.cls-10{fill:url(#linear-gradient-9);}.cls-11{fill:url(#linear-gradient-10);}</style><linearGradient id="linear-gradient" y1="97.5" x2="75.04" y2="97.5" gradientUnits="userSpaceOnUse"><stop offset="0" stop-color="#29abe2"/><stop offset="1" stop-color="#167bbb"/></linearGradient><linearGradient id="linear-gradient-2" x1="27.23" x2="51.13" xlink:href="#linear-gradient"/><linearGradient id="linear-gradient-3" x1="12.09" y1="13.29" x2="69.32" y2="13.29" xlink:href="#linear-gradient"/><linearGradient id="linear-gradient-4" x1="4.04" y1="13.29" x2="9.73" y2="13.29" xlink:href="#linear-gradient"/><linearGradient id="linear-gradient-5" x1="12.09" y1="29.97" x2="69.32" y2="29.97" xlink:href="#linear-gradient"/><linearGradient id="linear-gradient-6" x1="4.04" y1="29.97" x2="9.73" y2="29.97" xlink:href="#linear-gradient"/><linearGradient id="linear-gradient-7" x1="12.09" y1="46.65" x2="69.32" y2="46.65" xlink:href="#linear-gradient"/><linearGradient id="linear-gradient-8" x1="4.04" y1="46.65" x2="9.73" y2="46.65" xlink:href="#linear-gradient"/><linearGradient id="linear-gradient-9" x1="12.09" y1="62.28" x2="69.32" y2="62.28" xlink:href="#linear-gradient"/><linearGradient id="linear-gradient-10" x1="4.04" y1="62.28" x2="9.73" y2="62.28" xlink:href="#linear-gradient"/></defs><title>review</title><g id="Layer_2" data-name="Layer 2"><g id="Layer_1-2" data-name="Layer 1"><path class="cls-1" d="M3,0H72a3,3,0,0,1,3,3V97a0,0,0,0,1,0,0H0a0,0,0,0,1,0,0V3A3,3,0,0,1,3,0Z"/><ellipse class="cls-1" cx="37.52" cy="97.5" rx="37.52" ry="13.5"/><path class="cls-2" d="M37.52,86c9.79,0,19,1.36,25.85,3.84C69.42,92,73,94.88,73,97.5s-3.62,5.49-9.67,7.66C56.5,107.64,47.31,109,37.52,109s-19-1.36-25.85-3.84C5.61,103,2,100.12,2,97.5S5.61,92,11.67,89.84c6.87-2.48,16-3.84,25.85-3.84m0-2C16.8,84,0,90,0,97.5S16.8,111,37.52,111,75,105,75,97.5,58.24,84,37.52,84Z"/><ellipse class="cls-1" cx="39.18" cy="97.5" rx="11.95" ry="12.79"/><path class="cls-3" d="M39.18,86.71c5.49,0,10,4.84,10,10.79s-4.46,10.79-10,10.79-9.95-4.84-9.95-10.79,4.46-10.79,10-10.79m0-2c-6.6,0-11.95,5.73-11.95,12.79s5.35,12.79,12,12.79,12-5.73,12-12.79-5.35-12.79-12-12.79Z"/><rect class="cls-4" x="12.09" y="10.33" width="57.24" height="5.92" rx="2.84"/><ellipse class="cls-5" cx="6.88" cy="13.29" rx="2.85" ry="2.96"/><rect class="cls-6" x="12.09" y="27.01" width="57.24" height="5.92" rx="2.84"/><ellipse class="cls-7" cx="6.88" cy="29.97" rx="2.85" ry="2.96"/><rect class="cls-8" x="12.09" y="43.69" width="57.24" height="5.92" rx="2.84"/><ellipse class="cls-9" cx="6.88" cy="46.65" rx="2.85" ry="2.96"/><rect class="cls-10" x="12.09" y="59.32" width="57.24" height="5.92" rx="2.84"/><ellipse class="cls-11" cx="6.88" cy="62.28" rx="2.85" ry="2.96"/></g></g></svg>