<svg xmlns="http://www.w3.org/2000/svg" viewBox="0 0 75.03 109.65"><defs><style>.cls-1{fill:#167bbb;}.cls-2{fill:none;stroke:#f9f9fa;stroke-miterlimit:10;stroke-width:4px;}.cls-3{fill:#f9f9fa;}</style></defs><title>passport</title><g id="Layer_2" data-name="Layer 2"><g id="Layer_1-2" data-name="Layer 1"><rect class="cls-1" width="75.03" height="109.65" rx="5"/><path class="cls-2" d="M35.16,76.87l-2.77-8.32a37.05,37.05,0,0,1,0-23.41l2.77-8.31"/><path class="cls-2" d="M40.9,76.81l2.77-8.32a37.05,37.05,0,0,0,0-23.41L40.9,36.76"/><path class="cls-2" d="M20.88,69l7.05-2.4a30.65,30.65,0,0,1,19.84,0l7,2.4"/><path class="cls-2" d="M54.82,44.35l-7,2.4a30.78,30.78,0,0,1-19.84,0l-7-2.4"/><ellipse class="cls-2" cx="38.03" cy="56.71" rx="20.37" ry="20.6"/><line class="cls-2" x1="17.66" y1="56.71" x2="58.4" y2="56.71"/><rect class="cls-3" x="13.77" y="92.5" width="49.15" height="6.42" rx="2.84"/><rect class="cls-3" x="13.77" y="10.74" width="49.15" height="6.42" rx="2.84"/></g></g></svg>