<svg xmlns="http://www.w3.org/2000/svg" viewBox="0 0 99.26 111.45"><defs><style>.cls-1{fill:#167bbb;}.cls-2{fill:#fff;}</style></defs><title>delete</title><g id="Layer_2" data-name="Layer 2"><g id="Layer_1-2" data-name="Layer 1"><path class="cls-1" d="M60.45,5V70.9H38.27V5H60.45m0-5H38.27a5,5,0,0,0-5,5V70.9a5,5,0,0,0,5,5H60.45a5,5,0,0,0,5-5V5a5,5,0,0,0-5-5Z"/><path class="cls-1" d="M80.78,111.45H18.19a3,3,0,0,1-3-2.62L5.9,28.07a3,3,0,0,1,3-3.28H90.09a3,3,0,0,1,3,3.28l-9.31,80.76A3,3,0,0,1,80.78,111.45Z"/><rect class="cls-1" y="9.99" width="99.26" height="21.14" rx="10"/><path class="cls-2" d="M28,101.15,20.34,33.77a3,3,0,0,1,2.21-3.38h0A2.66,2.66,0,0,1,25.42,33l7.67,67.39a3,3,0,0,1-2.21,3.37h0A2.68,2.68,0,0,1,28,101.15Z"/><rect class="cls-2" x="46.71" y="32.18" width="5.13" height="73.98" rx="2.56"/><path class="cls-2" d="M71.25,101.47l7.66-67.38a3,3,0,0,0-2.2-3.37h0a2.67,2.67,0,0,0-2.88,2.58l-7.66,67.38a3,3,0,0,0,2.2,3.37h0A2.67,2.67,0,0,0,71.25,101.47Z"/></g></g></svg>