<svg xmlns="http://www.w3.org/2000/svg" viewBox="0 0 109.06 109.06"><defs><style>.cls-1{fill:#167bbb;}.cls-2{fill:#fff;}</style></defs><title>edit</title><g id="Layer_2" data-name="Layer 2"><g id="Layer_1-2" data-name="Layer 1"><path class="cls-1" d="M24.49,84.56,35.22,95.28a1.45,1.45,0,0,1-.79,2.25L18,103.25,1.54,109a1.1,1.1,0,0,1-1.46-1.46L5.81,91.07l5.72-16.45a1.44,1.44,0,0,1,2.24-.78Z"/><path class="cls-1" d="M86.64,37.12A14.74,14.74,0,0,1,76.09,33c-6.36-6.36-5.3-17.77,2.37-25.44A21.44,21.44,0,0,1,93.35,1,14.75,14.75,0,0,1,103.9,5.16,14.91,14.91,0,0,1,108,17.3a21.67,21.67,0,0,1-6.45,13.29A21.44,21.44,0,0,1,86.64,37.12Z"/><path class="cls-2" d="M93.35,2h0a13.75,13.75,0,0,1,9.84,3.86A14,14,0,0,1,107,17.21a20.74,20.74,0,0,1-6.17,12.68,20.42,20.42,0,0,1-14.18,6.23,13.73,13.73,0,0,1-9.84-3.86c-6-6-4.91-16.75,2.37-24A20.39,20.39,0,0,1,93.35,2m0-2a22.41,22.41,0,0,0-15.6,6.82c-8.07,8.07-9.13,20.09-2.37,26.85a15.67,15.67,0,0,0,11.26,4.45,22.4,22.4,0,0,0,15.59-6.82c8.07-8.07,9.14-20.09,2.38-26.85A15.67,15.67,0,0,0,93.35,0Z"/><path class="cls-1" d="M35.89,95.4a2,2,0,0,1-1.41-.59L14.24,74.58a2,2,0,0,1,0-2.83l62.6-62.6a2,2,0,0,1,2.83,0L99.91,29.38a2,2,0,0,1,0,2.83l-62.6,62.6A2,2,0,0,1,35.89,95.4Z"/><path class="cls-2" d="M78.26,9.56a1,1,0,0,1,.71.29L99.2,30.09a1,1,0,0,1,0,1.41L36.6,94.11a1,1,0,0,1-1.41,0L15,73.87a1,1,0,0,1,0-1.42l62.6-62.6a1,1,0,0,1,.71-.29m0-2a3,3,0,0,0-2.12.88L13.54,71a3,3,0,0,0,0,4.24L33.77,95.52a3,3,0,0,0,2.12.88A3,3,0,0,0,38,95.52l62.61-62.6a3,3,0,0,0,0-4.24L80.38,8.44a3,3,0,0,0-2.12-.88Z"/></g></g></svg>