<svg xmlns="http://www.w3.org/2000/svg" viewBox="0 0 123.59 119"><defs><style>.cls-1,.cls-2{fill:#167bbb;}.cls-2{stroke:#f9f9fa;stroke-miterlimit:10;stroke-width:2px;}</style></defs><title>education</title><g id="Layer_2" data-name="Layer 2"><g id="Layer_1-2" data-name="Layer 1"><path class="cls-1" d="M56,92.61,2.33,51.39c-3.2-2.46-3.08-7.88.22-10.08L63.33.8A4.69,4.69,0,0,1,68.79,1l52.39,38.68a6.43,6.43,0,0,1,0,10L61.75,92.72A4.7,4.7,0,0,1,56,92.61Z"/><ellipse class="cls-2" cx="62.66" cy="55.9" rx="36.31" ry="15.73"/><polyline class="cls-2" points="98.97 56.45 98.97 91.17 26.34 91.17 26.34 57.02"/><ellipse class="cls-2" cx="62.66" cy="91.71" rx="36.31" ry="15.73"/><rect class="cls-1" x="112.28" y="51.39" width="3.04" height="23.18"/><path class="cls-1" d="M115.15,119h-2.7a1.88,1.88,0,0,1-1.6-2.14l1.35-32.63a1.82,1.82,0,0,1,1.6-1.93h0a1.82,1.82,0,0,1,1.59,1.93l1.35,32.63A1.88,1.88,0,0,1,115.15,119Z"/><ellipse class="cls-1" cx="113.8" cy="80.37" rx="7.59" ry="9.66"/></g></g></svg>