<svg id="Layer_1" data-name="Layer 1" xmlns="http://www.w3.org/2000/svg" viewBox="0 0 77.73 115.86"><defs><style>.cls-1,.cls-2{fill:#3b53a3;}.cls-1,.cls-2,.cls-3{stroke:#fff;stroke-miterlimit:10;}.cls-1{stroke-width:0.5px;}.cls-2,.cls-3{stroke-width:2px;}</style></defs><title>education_blue_revisited</title><rect class="cls-1" x="65.61" y="28.33" width="1.61" height="12.33"/><path class="cls-2" d="M36.55,52.43,8,30.45a3.4,3.4,0,0,1-.46-4.8,3.77,3.77,0,0,1,.57-.56L40.42,3.55a2.49,2.49,0,0,1,2.91.09L71.19,24.2A3.44,3.44,0,0,1,71.7,29a3.08,3.08,0,0,1-.51.51L39.59,52.43A2.52,2.52,0,0,1,36.55,52.43Z" transform="translate(-0.85 -2.13)"/><ellipse class="cls-2" cx="39.22" cy="30.73" rx="19.31" ry="8.36"/><polyline class="cls-2" points="58.53 31.02 58.53 49.49 19.91 49.49 19.91 31.33"/><ellipse class="cls-3" cx="39.22" cy="49.77" rx="19.31" ry="8.36"/><path class="cls-1" d="M68,66.41H66.54a1,1,0,0,1-.84-1.12v0l.72-17.35a1,1,0,0,1,.84-1h0a1,1,0,0,1,.86,1l.72,17.35A1,1,0,0,1,68,66.41Z" transform="translate(-0.85 -2.13)"/><ellipse class="cls-1" cx="66.41" cy="43.74" rx="4.04" ry="5.14"/><path class="cls-2" d="M74.2,117a3.36,3.36,0,0,0,3.38-3.35c0-.1,0-.2,0-.31a38,38,0,0,0-75.71,0,3.37,3.37,0,0,0,3,3.65H74.2Z" transform="translate(-0.85 -2.13)"/><path class="cls-2" d="M59.34,57.93a19.36,19.36,0,0,1-38.71,0c0-10.7,8.63-13.63,19.32-13.63S59.34,47.23,59.34,57.93Z" transform="translate(-0.85 -2.13)"/></svg>