<svg xmlns="http://www.w3.org/2000/svg" viewBox="0 0 103 109"><defs><style>.cls-1{fill:#167bbb;}.cls-2{fill:none;stroke:#f9f9fa;stroke-miterlimit:10;stroke-width:2px;}.cls-3{fill:#f9f9fa;}</style></defs><title>employement</title><g id="Layer_2" data-name="Layer 2"><g id="Layer_1-2" data-name="Layer 1"><path class="cls-1" d="M63.91,5V72.8H39.57V5H63.91m0-5H39.57a5,5,0,0,0-5,5V72.8a5,5,0,0,0,5,5H63.91a5,5,0,0,0,5-5V5a5,5,0,0,0-5-5Z"/><path class="cls-1" d="M98,20a4.79,4.79,0,0,1,5,4.54v79.92A4.79,4.79,0,0,1,98,109H5a4.79,4.79,0,0,1-5-4.54V24.54A4.79,4.79,0,0,1,5,20H98"/><path class="cls-2" d="M101.21,22,81.6,79.07C80.72,81.46,78.83,83,76.76,83h-51c-2.06,0-4-1.54-4.83-3.93L1.79,22"/><rect class="cls-3" x="36.49" y="72.85" width="29.63" height="6.29" rx="2.84"/></g></g></svg>