<svg xmlns="http://www.w3.org/2000/svg" viewBox="0 0 128.32 111.53"><defs><style>.cls-1,.cls-3{fill:none;}.cls-2{fill:#167bbb;}.cls-3{stroke:#167bbb;stroke-miterlimit:10;stroke-width:2px;}</style></defs><title>ethnic_origin</title><g id="Layer_2" data-name="Layer 2"><g id="Layer_1-2" data-name="Layer 1"><line class="cls-1" x1="87" y1="84.53" x2="79.96" y2="84.53"/><path class="cls-2" d="M89.76,2a17.81,17.81,0,0,1,17.8,17.8A17.8,17.8,0,1,1,89.76,2m0-2a19.79,19.79,0,1,0,12.45,4.4A19.79,19.79,0,0,0,89.76,0Z"/><path class="cls-2" d="M89.76,42.82A36.72,36.72,0,0,1,126.31,76a1.36,1.36,0,0,1-.36,1.06,1.44,1.44,0,0,1-1.08.47H54.65a1.44,1.44,0,0,1-1.08-.47A1.4,1.4,0,0,1,53.21,76,36.74,36.74,0,0,1,89.76,42.82m0-2a38.72,38.72,0,0,0-38.54,35,3.43,3.43,0,0,0,3.43,3.72h70.22a3.42,3.42,0,0,0,3.43-3.72,38.71,38.71,0,0,0-38.54-35Z"/><path class="cls-2" d="M39,43.37A37.18,37.18,0,0,1,76,77,1.4,1.4,0,0,1,75.63,78a1.47,1.47,0,0,1-1.11.49h-71A1.47,1.47,0,0,1,2.37,78,1.4,1.4,0,0,1,2,77,37.16,37.16,0,0,1,39,43.37m0-2A39.16,39.16,0,0,0,0,76.77a3.46,3.46,0,0,0,3.46,3.76h71A3.46,3.46,0,0,0,78,76.77a39.17,39.17,0,0,0-39-35.4Z"/><line class="cls-3" x1="53.66" y1="6.04" x2="25.66" y2="34.04"/><line class="cls-3" x1="58.71" y1="17.25" x2="36.73" y2="39.23"/><line class="cls-3" x1="42.94" y1="1.49" x2="20.97" y2="23.46"/><path class="cls-2" d="M39.86,2.25A18,18,0,1,1,27.11,7.53,17.91,17.91,0,0,1,39.86,2.25m0-2A20,20,0,1,0,54,6.11,19.95,19.95,0,0,0,39.86.25Z"/><line class="cls-3" x1="56.24" y1="45.58" x2="22.12" y2="79.67"/><line class="cls-3" x1="66.43" y1="52.28" x2="38.49" y2="80.22"/><line class="cls-3" x1="43.96" y1="42.32" x2="6.87" y2="79.41"/><line class="cls-3" x1="73.09" y1="61.44" x2="54.39" y2="80.14"/><line class="cls-3" x1="25.28" y1="44.82" x2="3.28" y2="66.82"/><path class="cls-2" d="M87.57,49.66A20.5,20.5,0,1,1,80,33.72,20.5,20.5,0,0,1,87.57,49.66Z"/><path class="cls-2" d="M103.44,111.53a3.55,3.55,0,0,0,3.55-3.85,40.1,40.1,0,0,0-79.83,0,3.54,3.54,0,0,0,3.54,3.85Z"/></g></g></svg>