<svg xmlns="http://www.w3.org/2000/svg" viewBox="0 0 112.82 116.63"><defs><style>.cls-1{fill:#167bbb;}.cls-2{fill:none;stroke:#167bbb;stroke-miterlimit:10;stroke-width:5px;}.cls-3{fill:#fff;}</style></defs><title>language</title><g id="Layer_2" data-name="Layer 2"><g id="Layer_1-2" data-name="Layer 1"><path class="cls-1" d="M43.45,5A38.45,38.45,0,1,1,5,43.45,38.5,38.5,0,0,1,43.45,5m0-5A43.45,43.45,0,1,0,86.9,43.45,43.45,43.45,0,0,0,43.45,0Z"/><path class="cls-2" d="M11,69.37l14.18-4.78a62.52,62.52,0,0,1,39.91,0l14.18,4.78"/><path class="cls-2" d="M76.28,18.32,62.9,22.83a59,59,0,0,1-37.68,0L11.84,18.32"/><line class="cls-2" y1="43.45" x2="86.9" y2="43.45"/><path class="cls-2" d="M37.32,86l-5.9-17.54a77.25,77.25,0,0,1,0-49.37l5.9-17.54"/><path class="cls-2" d="M49.58,85.83,55.49,68.3a77.39,77.39,0,0,0,0-49.37L49.58,1.39"/><path class="cls-1" d="M34.3,81.57c0,13.05,17.58,23.63,39.26,23.63,1.22,0,2.42,0,3.61-.1,20-1.1,35.65-11.21,35.65-23.53,0-13-17.58-23.63-39.26-23.63S34.3,68.52,34.3,81.57Z"/><path class="cls-1" d="M77,103.17l18.41,13.26A1,1,0,0,0,96.9,115c-4.37-6.34-9.31-16-.13-17.39L77.44,101.3A1,1,0,0,0,77,103.17Z"/><rect class="cls-3" x="59.68" y="70.88" width="27.98" height="6.12" rx="2.68"/><rect class="cls-3" x="59.68" y="80.79" width="27.98" height="6.12" rx="2.68"/></g></g></svg>