<svg xmlns="http://www.w3.org/2000/svg" viewBox="0 0 124.66 105"><defs><style>.cls-1{fill:#167bbb;}.cls-2{fill:#fff;}.cls-3{fill:none;stroke:#fff;stroke-miterlimit:10;stroke-width:2px;}</style></defs><title>literacy</title><g id="Layer_2" data-name="Layer 2"><g id="Layer_1-2" data-name="Layer 1"><rect class="cls-1" y="11.77" width="124.66" height="93.23"/><path class="cls-1" d="M62.46,101.51c-10.71-4.62-21-7-30.45-7-13.66,0-21.73,4.77-24.22,6.51V11.27C16.35,4.2,25.24.61,34.22.61,50.69.61,62,12.86,62.11,13l.35.38.37-.35C71.46,4.71,80.9.5,90.88.5c14,0,24.54,8.35,26,9.56v91.19a59.67,59.67,0,0,0-26.5-6.16A64.11,64.11,0,0,0,62.46,101.51Z"/><path class="cls-2" d="M90.88,0V1c13.31,0,23.54,7.71,25.5,9.29v90.17a60,60,0,0,0-26-5.87A63.91,63.91,0,0,0,62.44,101c-10.7-4.58-20.93-6.9-30.43-6.9a48.58,48.58,0,0,0-18.89,3.58,33,33,0,0,0-4.83,2.51V11.51c8.41-6.9,17.14-10.4,25.93-10.4,16.24,0,27.41,12.08,27.52,12.21l.7.76.74-.71C71.71,5.16,81,1,90.88,1V0m0,0c-8.57,0-18.44,3.07-28.4,12.64,0,0-11.36-12.53-28.26-12.53C26.26.11,17.09,2.88,7.29,11v91s8.36-7,24.72-7c8.17,0,18.35,1.75,30.47,7a62.6,62.6,0,0,1,27.9-6.47,59.24,59.24,0,0,1,27,6.47V9.82S106.21,0,90.88,0Z"/><line class="cls-3" x1="62.48" y1="12.64" x2="62.14" y2="102.38"/><path class="cls-3" d="M12.52,46.22c2.11-1.3,22.27-13.31,39.87,0"/><path class="cls-3" d="M12.52,72.91c2.11-1.31,22.27-13.31,39.87,0"/><path class="cls-3" d="M12.52,59.5c2.11-1.31,22.27-13.31,39.87,0"/><path class="cls-3" d="M12.52,87.19c2.11-1.31,22.27-13.31,39.87,0"/><path class="cls-3" d="M12.52,21.15c2.11-1.3,22.27-13.3,39.87,0"/><path class="cls-3" d="M12.52,33.56c2.11-1.31,22.27-13.31,39.87,0"/><path class="cls-3" d="M70,46.5c2.1-1.3,22.26-13.3,39.86,0"/><path class="cls-3" d="M70,73.19c2.1-1.3,22.26-13.31,39.86,0"/><path class="cls-3" d="M70,59.78c2.1-1.3,22.26-13.3,39.86,0"/><path class="cls-3" d="M70,87.47c2.1-1.3,22.26-13.3,39.86,0"/><path class="cls-3" d="M70,21.44c2.1-1.31,22.26-13.31,39.86,0"/><path class="cls-3" d="M70,33.84c2.1-1.3,22.26-13.3,39.86,0"/></g></g></svg>