<svg xmlns="http://www.w3.org/2000/svg" viewBox="0 0 120.58 116.63"><defs><style>.cls-1{fill:#167bbb;}.cls-2{fill:#f9f9fa;}</style></defs><title>needed_service</title><g id="Layer_2" data-name="Layer 2"><g id="Layer_1-2" data-name="Layer 1"><path class="cls-1" d="M89.17,17.05A17,17,0,0,1,71.88,34.1,17.28,17.28,0,0,1,55.07,17.29a17.05,17.05,0,1,1,34.1-.24Z"/><path class="cls-1" d="M102.36,68.5a3,3,0,0,0,3-3.24,33.35,33.35,0,0,0-66.38,0,3,3,0,0,0,3,3.24Z"/><path class="cls-1" d="M61.7,116.13A10.75,10.75,0,0,1,56,114.65l-23.52-16a1.49,1.49,0,0,0-.82-.25,1.29,1.29,0,0,0-.43.07l-23.1,7.32-.13,0a.6.6,0,0,1-.52-.47l-7-26.79a.69.69,0,0,1,.35-.84L37.23,63.64a1.79,1.79,0,0,0,.38-.22A7.07,7.07,0,0,1,42,61.84a7.57,7.57,0,0,1,3.71,1L81.24,85.94a.74.74,0,0,1,.26.34c1.87,5.41,2,9.24.5,11.4a5.47,5.47,0,0,1-4.61,2,10.54,10.54,0,0,1-2.19-.23.34.34,0,0,1-.15-.06L61.28,90.61a1.48,1.48,0,0,0-.78-.23,1.42,1.42,0,0,0-.88.3A1.7,1.7,0,0,0,59,92.09a1.69,1.69,0,0,0,.72,1.37l14.74,10.2a1.5,1.5,0,0,0,.73.26q.81.06,1.56.06h0c3.47,0,6.14-1,7.92-3.1,3.05-3.53,2.62-9.09,2.29-11.32a.67.67,0,0,1,.43-.76l22.71-5.64a2.68,2.68,0,0,1,.56-.07l.28,0c4.74.64,7.67,2.23,8.73,4.74,1.78,4.24-2.26,10-3.09,11.09a.53.53,0,0,1-.26.19L68.21,114.57l-.15.05A15.08,15.08,0,0,1,61.7,116.13Z"/><path class="cls-2" d="M42,62.34a7.14,7.14,0,0,1,3.43.91L81,86.36a.17.17,0,0,1,0,.09c1.79,5.17,2,9,.57,10.94a4.82,4.82,0,0,1-4.2,1.76,9.77,9.77,0,0,1-2.08-.22L61.54,90.19a1.92,1.92,0,0,0-2.22.09,2.24,2.24,0,0,0,.06,3.59l14.75,10.2a2,2,0,0,0,1,.35q.84.06,1.62.06c3.63,0,6.42-1.1,8.3-3.27,3.18-3.69,2.74-9.42,2.41-11.72a.24.24,0,0,1,0-.21l22.71-5.63a1.67,1.67,0,0,1,.44-.06l.21,0c4.55.61,7.36,2.1,8.34,4.43,1.68,4-2.23,9.53-3,10.62L68.06,114.09l-.22.08a14.51,14.51,0,0,1-6.14,1.46,10.18,10.18,0,0,1-5.4-1.4l-23.51-16a2,2,0,0,0-1.11-.34,2,2,0,0,0-.58.09L8,105.31s0,0,0-.1L1,78.43a.31.31,0,0,1,.05-.26L37.41,64.1a2.06,2.06,0,0,0,.5-.28A6.58,6.58,0,0,1,42,62.34m0-1A7.51,7.51,0,0,0,37.3,63a.89.89,0,0,1-.25.14L.7,77.24A1.23,1.23,0,0,0,0,78.68l7,26.78a1.06,1.06,0,0,0,1,.85.92.92,0,0,0,.28,0l23.1-7.32a.9.9,0,0,1,.28,0,1,1,0,0,1,.54.17l23.51,16a11.08,11.08,0,0,0,6,1.57,15.46,15.46,0,0,0,6.56-1.55l.1,0,48.08-15.43a1,1,0,0,0,.5-.37c1.5-2,10.1-14.47-6-16.62a2,2,0,0,0-.34,0,2.59,2.59,0,0,0-.68.09L87.23,88.31a1.17,1.17,0,0,0-.8,1.33c.5,3.42,1.13,13.84-9.72,13.84q-.73,0-1.53-.06a.93.93,0,0,1-.48-.17L60,93.05a1.24,1.24,0,0,1,0-2,1,1,0,0,1,.58-.2A1,1,0,0,1,61,91l13.77,8.75a1.07,1.07,0,0,0,.31.13,11,11,0,0,0,2.3.24c3.44,0,8.82-1.76,4.58-14a1.17,1.17,0,0,0-.45-.59L46,62.41a8,8,0,0,0-4-1.07Z"/></g></g></svg>