<svg xmlns="http://www.w3.org/2000/svg" viewBox="0 0 89.08 117.94"><defs><style>.cls-1{fill:#167bbb;}</style></defs><title>location</title><g id="Layer_2" data-name="Layer 2"><g id="Layer_1-2" data-name="Layer 1"><path class="cls-1" d="M44.54,96.88c11.73,0,22.74,1.17,31,3.31,9.11,2.36,11.54,5,11.54,6.22s-2.43,3.85-11.54,6.21c-8.26,2.14-19.27,3.32-31,3.32s-22.74-1.18-31-3.32C4.43,110.26,2,107.61,2,106.41s2.43-3.86,11.55-6.22c8.25-2.14,19.26-3.31,31-3.31m0-2C19.94,94.88,0,100,0,106.41s19.94,11.53,44.54,11.53,44.54-5.16,44.54-11.53S69.14,94.88,44.54,94.88Z"/><path class="cls-1" d="M24.06,9.15C34.72-.34,49.35-5.72,65.68,9.72a36.81,36.81,0,0,1,7.65,42.9L48.11,104.24a4,4,0,0,1-7.22,0L15.67,52.63A36.68,36.68,0,0,1,24.06,9.15Zm20.52,9.74A16.57,16.57,0,1,0,61.14,35.45,16.56,16.56,0,0,0,44.58,18.89Z"/></g></g></svg>