<svg xmlns="http://www.w3.org/2000/svg" viewBox="0 0 75.04 111"><defs><style>.cls-1{fill:#167bbb;}.cls-2{fill:#fff;}</style></defs><title>review</title><g id="Layer_2" data-name="Layer 2"><g id="Layer_1-2" data-name="Layer 1"><path class="cls-1" d="M72,0H3A3,3,0,0,0,0,3V97H75V3A3,3,0,0,0,72,0Z"/><ellipse class="cls-1" cx="37.52" cy="97.5" rx="36.52" ry="12.5"/><path class="cls-2" d="M37.52,86c9.79,0,19,1.36,25.85,3.84C69.42,92,73,94.88,73,97.5s-3.62,5.49-9.67,7.66C56.5,107.64,47.31,109,37.52,109s-19-1.36-25.85-3.84C5.61,103,2,100.12,2,97.5S5.61,92,11.67,89.84c6.87-2.48,16-3.84,25.85-3.84m0-2C16.8,84,0,90,0,97.5S16.8,111,37.52,111,75,105,75,97.5,58.24,84,37.52,84Z"/><path class="cls-1" d="M39.18,109.29c-6,0-10.95-5.29-10.95-11.79s4.91-11.79,11-11.79,11,5.29,11,11.79S45.22,109.29,39.18,109.29Z"/><path class="cls-2" d="M39.18,86.71c5.49,0,10,4.84,10,10.79s-4.46,10.79-10,10.79-9.95-4.84-9.95-10.79,4.46-10.79,10-10.79m0-2c-6.6,0-11.95,5.73-11.95,12.79s5.35,12.79,12,12.79,12-5.73,12-12.79-5.35-12.79-12-12.79Z"/><rect class="cls-2" x="12.09" y="10.33" width="57.24" height="5.92" rx="2.84"/><ellipse class="cls-2" cx="6.94" cy="13.29" rx="2.79" ry="2.96"/><rect class="cls-2" x="12.09" y="27.01" width="57.24" height="5.92" rx="2.84"/><ellipse class="cls-2" cx="6.94" cy="29.97" rx="2.79" ry="2.96"/><rect class="cls-2" x="12.09" y="43.69" width="57.24" height="5.92" rx="2.84"/><ellipse class="cls-2" cx="6.94" cy="46.65" rx="2.79" ry="2.96"/><rect class="cls-2" x="12.09" y="59.32" width="57.24" height="5.92" rx="2.84"/><ellipse class="cls-2" cx="6.94" cy="62.28" rx="2.79" ry="2.96"/></g></g></svg>