<svg xmlns="http://www.w3.org/2000/svg" viewBox="0 0 82.88 123.11"><defs><style>.cls-1,.cls-2,.cls-4{fill:#fff;}.cls-1,.cls-5{stroke:#68caf0;stroke-width:3px;}.cls-1,.cls-2,.cls-3,.cls-5{stroke-miterlimit:10;}.cls-2{stroke:#69c9ef;}.cls-2,.cls-3{stroke-width:2px;}.cls-3{stroke:#fff;}.cls-5{fill:none;}</style></defs><title>education_hover</title><g id="Layer_2" data-name="Layer 2"><g id="Layer_9" data-name="Layer 9"><path class="cls-1" d="M38.11,53.45,8,30.32a3.6,3.6,0,0,1,.12-5.65L42.19,2A2.63,2.63,0,0,1,45.26,2L74.64,23.73a3.62,3.62,0,0,1,0,5.63L41.31,53.51A2.64,2.64,0,0,1,38.11,53.45Z"/><ellipse class="cls-2" cx="41.82" cy="32.86" rx="20.37" ry="8.82"/><polyline class="cls-2" points="62.19 33.16 62.19 52.64 21.45 52.64 21.45 33.49"/><ellipse class="cls-3" cx="41.82" cy="52.94" rx="20.37" ry="8.82"/><rect class="cls-4" x="69.65" y="30.33" width="1.7" height="13"/><path class="cls-4" d="M71.26,68.25H69.74a1.05,1.05,0,0,1-.89-1.2l.76-18.3a1,1,0,0,1,.89-1.09h0a1,1,0,0,1,.9,1.09l.76,18.3A1.07,1.07,0,0,1,71.26,68.25Z"/><ellipse class="cls-4" cx="70.5" cy="46.58" rx="4.26" ry="5.42"/><path class="cls-4" d="M77.82,121.59a3.55,3.55,0,0,0,3.55-3.86,40.11,40.11,0,0,0-79.85,0,3.54,3.54,0,0,0,3.55,3.86Z"/><path class="cls-5" d="M77.82,121.59a3.55,3.55,0,0,0,3.55-3.86,40.11,40.11,0,0,0-79.85,0,3.54,3.54,0,0,0,3.55,3.86Z"/><path class="cls-1" d="M62.14,59.3a20.42,20.42,0,0,1-40.83,0c0-11.28,9.11-14.37,20.38-14.37S62.14,48,62.14,59.3Z"/></g></g></svg>